<svg xmlns="http://www.w3.org/2000/svg" viewBox="0 0 900 580" font-family="Inter, system-ui, -apple-system, sans-serif">
  <defs>
    <filter id="shadow" x="-4%" y="-4%" width="108%" height="108%">
      <feDropShadow dx="0" dy="2" stdDeviation="4" flood-color="#1c2733" flood-opacity="0.08"/>
    </filter>
    <marker id="arrow" markerWidth="10" markerHeight="7" refX="9" refY="3.5" orient="auto">
      <polygon points="0 0, 10 3.5, 0 7" fill="#2563eb"/>
    </marker>
    <marker id="arrowGray" markerWidth="10" markerHeight="7" refX="9" refY="3.5" orient="auto">
      <polygon points="0 0, 10 3.5, 0 7" fill="#94a3b8"/>
    </marker>
  </defs>

  <rect width="900" height="580" fill="#f8fafc" rx="16"/>

  <text x="450" y="46" text-anchor="middle" font-size="22" font-weight="800" fill="#1c2733" letter-spacing="-0.5">Feature Development Pipeline</text>
  <text x="450" y="68" text-anchor="middle" font-size="13" fill="#6b7280">How Foreman agents build and ship features autonomously</text>

  <g transform="translate(60, 110)">
    <rect x="0" y="0" width="150" height="90" rx="12" fill="#fff" stroke="#2563eb" stroke-width="2" filter="url(#shadow)"/>
    <rect x="0" y="0" width="150" height="28" rx="12" fill="#2563eb"/>
    <rect x="0" y="14" width="150" height="14" fill="#2563eb"/>
    <text x="75" y="20" text-anchor="middle" font-size="11" fill="#fff" font-weight="600">1. Ideation</text>
    <text x="75" y="52" text-anchor="middle" font-size="10" fill="#1c2733" font-weight="600">CEO Agent</text>
    <text x="75" y="68" text-anchor="middle" font-size="9" fill="#6b7280">Defines roadmap</text>
    <text x="75" y="80" text-anchor="middle" font-size="9" fill="#6b7280">items &amp; priorities</text>
  </g>
  <line x1="210" y1="155" x2="240" y2="155" stroke="#2563eb" stroke-width="2" marker-end="url(#arrow)"/>

  <g transform="translate(245, 110)">
    <rect x="0" y="0" width="150" height="90" rx="12" fill="#fff" stroke="#2563eb" stroke-width="2" filter="url(#shadow)"/>
    <rect x="0" y="0" width="150" height="28" rx="12" fill="#2563eb"/>
    <rect x="0" y="14" width="150" height="14" fill="#2563eb"/>
    <text x="75" y="20" text-anchor="middle" font-size="11" fill="#fff" font-weight="600">2. Planning</text>
    <text x="75" y="52" text-anchor="middle" font-size="10" fill="#1c2733" font-weight="600">CTO Agent</text>
    <text x="75" y="68" text-anchor="middle" font-size="9" fill="#6b7280">Architects solution</text>
    <text x="75" y="80" text-anchor="middle" font-size="9" fill="#6b7280">Creates task tree</text>
  </g>
  <line x1="395" y1="155" x2="425" y2="155" stroke="#2563eb" stroke-width="2" marker-end="url(#arrow)"/>

  <g transform="translate(430, 110)">
    <rect x="0" y="0" width="150" height="90" rx="12" fill="#fff" stroke="#2563eb" stroke-width="2" filter="url(#shadow)"/>
    <rect x="0" y="0" width="150" height="28" rx="12" fill="#2563eb"/>
    <rect x="0" y="14" width="150" height="14" fill="#2563eb"/>
    <text x="75" y="20" text-anchor="middle" font-size="11" fill="#fff" font-weight="600">3. Design</text>
    <text x="75" y="52" text-anchor="middle" font-size="10" fill="#1c2733" font-weight="600">UX Designer</text>
    <text x="75" y="68" text-anchor="middle" font-size="9" fill="#6b7280">UI/UX specs &amp;</text>
    <text x="75" y="80" text-anchor="middle" font-size="9" fill="#6b7280">design system</text>
  </g>
  <line x1="580" y1="155" x2="610" y2="155" stroke="#2563eb" stroke-width="2" marker-end="url(#arrow)"/>

  <g transform="translate(615, 110)">
    <rect x="0" y="0" width="150" height="90" rx="12" fill="#fff" stroke="#2563eb" stroke-width="2" filter="url(#shadow)"/>
    <rect x="0" y="0" width="150" height="28" rx="12" fill="#2563eb"/>
    <rect x="0" y="14" width="150" height="14" fill="#2563eb"/>
    <text x="75" y="20" text-anchor="middle" font-size="11" fill="#fff" font-weight="600">4. Approval</text>
    <text x="75" y="52" text-anchor="middle" font-size="10" fill="#1c2733" font-weight="600">Chief of Staff</text>
    <text x="75" y="68" text-anchor="middle" font-size="9" fill="#6b7280">Plan review &amp;</text>
    <text x="75" y="80" text-anchor="middle" font-size="9" fill="#6b7280">approval gate</text>
  </g>

  <line x1="690" y1="200" x2="690" y2="240" stroke="#2563eb" stroke-width="2" marker-end="url(#arrow)"/>

  <g transform="translate(615, 245)">
    <rect x="0" y="0" width="150" height="90" rx="12" fill="#fff" stroke="#2563eb" stroke-width="2" filter="url(#shadow)"/>
    <rect x="0" y="0" width="150" height="28" rx="12" fill="#2563eb"/>
    <rect x="0" y="14" width="150" height="14" fill="#2563eb"/>
    <text x="75" y="20" text-anchor="middle" font-size="11" fill="#fff" font-weight="600">5. Implementation</text>
    <text x="75" y="52" text-anchor="middle" font-size="10" fill="#1c2733" font-weight="600">Claude/Codex</text>
    <text x="75" y="68" text-anchor="middle" font-size="9" fill="#6b7280">Code, test, and</text>
    <text x="75" y="80" text-anchor="middle" font-size="9" fill="#6b7280">debug features</text>
  </g>
  <line x1="615" y1="290" x2="585" y2="290" stroke="#2563eb" stroke-width="2" marker-end="url(#arrow)"/>

  <g transform="translate(430, 245)">
    <rect x="0" y="0" width="150" height="90" rx="12" fill="#fff" stroke="#2563eb" stroke-width="2" filter="url(#shadow)"/>
    <rect x="0" y="0" width="150" height="28" rx="12" fill="#2563eb"/>
    <rect x="0" y="14" width="150" height="14" fill="#2563eb"/>
    <text x="75" y="20" text-anchor="middle" font-size="11" fill="#fff" font-weight="600">6. Review</text>
    <text x="75" y="52" text-anchor="middle" font-size="10" fill="#1c2733" font-weight="600">QA Reviewer</text>
    <text x="75" y="68" text-anchor="middle" font-size="9" fill="#6b7280">Code quality &amp;</text>
    <text x="75" y="80" text-anchor="middle" font-size="9" fill="#6b7280">security checks</text>
  </g>
  <line x1="430" y1="290" x2="400" y2="290" stroke="#2563eb" stroke-width="2" marker-end="url(#arrow)"/>

  <g transform="translate(245, 245)">
    <rect x="0" y="0" width="150" height="90" rx="12" fill="#fff" stroke="#2563eb" stroke-width="2" filter="url(#shadow)"/>
    <rect x="0" y="0" width="150" height="28" rx="12" fill="#2563eb"/>
    <rect x="0" y="14" width="150" height="14" fill="#2563eb"/>
    <text x="75" y="20" text-anchor="middle" font-size="11" fill="#fff" font-weight="600">7. Deploy</text>
    <text x="75" y="52" text-anchor="middle" font-size="10" fill="#1c2733" font-weight="600">CTO Agent</text>
    <text x="75" y="68" text-anchor="middle" font-size="9" fill="#6b7280">CI/CD pipeline</text>
    <text x="75" y="80" text-anchor="middle" font-size="9" fill="#6b7280">&amp; production release</text>
  </g>
  <line x1="245" y1="290" x2="215" y2="290" stroke="#2563eb" stroke-width="2" marker-end="url(#arrow)"/>

  <g transform="translate(60, 245)">
    <rect x="0" y="0" width="150" height="90" rx="12" fill="#fff" stroke="#10b981" stroke-width="2" filter="url(#shadow)"/>
    <rect x="0" y="0" width="150" height="28" rx="12" fill="#10b981"/>
    <rect x="0" y="14" width="150" height="14" fill="#10b981"/>
    <text x="75" y="20" text-anchor="middle" font-size="11" fill="#fff" font-weight="600">8. Live!</text>
    <text x="75" y="52" text-anchor="middle" font-size="10" fill="#1c2733" font-weight="600">Finance Agent</text>
    <text x="75" y="68" text-anchor="middle" font-size="9" fill="#6b7280">Tracks metrics</text>
    <text x="75" y="80" text-anchor="middle" font-size="9" fill="#6b7280">&amp; cost impact</text>
  </g>

  <text x="450" y="398" text-anchor="middle" font-size="18" font-weight="800" fill="#1c2733" letter-spacing="-0.5">Content Creation Pipeline</text>
  <text x="450" y="418" text-anchor="middle" font-size="13" fill="#6b7280">How marketing content gets created autonomously</text>

  <g transform="translate(60, 440)">
    <rect x="0" y="0" width="120" height="70" rx="10" fill="#fff" stroke="#e2e8f0" filter="url(#shadow)"/>
    <text x="60" y="28" text-anchor="middle" font-size="10" font-weight="600" fill="#1c2733">CEO</text>
    <text x="60" y="44" text-anchor="middle" font-size="9" fill="#6b7280">Sets content</text>
    <text x="60" y="56" text-anchor="middle" font-size="9" fill="#6b7280">strategy</text>
  </g>
  <line x1="180" y1="475" x2="200" y2="475" stroke="#94a3b8" stroke-width="1.5" marker-end="url(#arrowGray)"/>

  <g transform="translate(205, 440)">
    <rect x="0" y="0" width="120" height="70" rx="10" fill="#fff" stroke="#e2e8f0" filter="url(#shadow)"/>
    <text x="60" y="28" text-anchor="middle" font-size="10" font-weight="600" fill="#1c2733">CMO</text>
    <text x="60" y="44" text-anchor="middle" font-size="9" fill="#6b7280">Creates brief &amp;</text>
    <text x="60" y="56" text-anchor="middle" font-size="9" fill="#6b7280">assigns writer</text>
  </g>
  <line x1="325" y1="475" x2="345" y2="475" stroke="#94a3b8" stroke-width="1.5" marker-end="url(#arrowGray)"/>

  <g transform="translate(350, 440)">
    <rect x="0" y="0" width="120" height="70" rx="10" fill="#fff" stroke="#e2e8f0" filter="url(#shadow)"/>
    <text x="60" y="28" text-anchor="middle" font-size="10" font-weight="600" fill="#1c2733">UX Designer</text>
    <text x="60" y="44" text-anchor="middle" font-size="9" fill="#6b7280">Creates visual</text>
    <text x="60" y="56" text-anchor="middle" font-size="9" fill="#6b7280">assets &amp; graphics</text>
  </g>
  <line x1="470" y1="475" x2="490" y2="475" stroke="#94a3b8" stroke-width="1.5" marker-end="url(#arrowGray)"/>

  <g transform="translate(495, 440)">
    <rect x="0" y="0" width="120" height="70" rx="10" fill="#fff" stroke="#e2e8f0" filter="url(#shadow)"/>
    <text x="60" y="28" text-anchor="middle" font-size="10" font-weight="600" fill="#1c2733">CoS</text>
    <text x="60" y="44" text-anchor="middle" font-size="9" fill="#6b7280">Reviews &amp;</text>
    <text x="60" y="56" text-anchor="middle" font-size="9" fill="#6b7280">approves content</text>
  </g>
  <line x1="615" y1="475" x2="635" y2="475" stroke="#94a3b8" stroke-width="1.5" marker-end="url(#arrowGray)"/>

  <g transform="translate(640, 440)">
    <rect x="0" y="0" width="120" height="70" rx="10" fill="#fff" stroke="#e2e8f0" filter="url(#shadow)"/>
    <text x="60" y="28" text-anchor="middle" font-size="10" font-weight="600" fill="#1c2733">CTO</text>
    <text x="60" y="44" text-anchor="middle" font-size="9" fill="#6b7280">Publishes to</text>
    <text x="60" y="56" text-anchor="middle" font-size="9" fill="#6b7280">blog &amp; social</text>
  </g>
  <line x1="760" y1="475" x2="780" y2="475" stroke="#10b981" stroke-width="2" marker-end="url(#arrow)"/>

  <g transform="translate(785, 440)">
    <rect x="0" y="0" width="80" height="70" rx="10" fill="#10b981" filter="url(#shadow)"/>
    <text x="40" y="40" text-anchor="middle" font-size="10" fill="#fff" font-weight="700">Live!</text>
  </g>
</svg>
